<svg version="1" xmlns="http://www.w3.org/2000/svg" width="134.667" height="134.667" viewBox="0 0 101.000000 101.000000"><path d="M39 1.4c-7.4 2.1-14.4 6.2-21 12.3C3.3 27.3 4 26.4 3.9 31.1c0 2.4-.2 5.1-.3 5.9-.2.8-.7 6.9-1 13.6-.7 10.8-.5 12.2 1.1 14.2 1 1.2 3.1 2.3 4.6 2.4 2.5.2 3.3 1.1 5.7 6.5 4 8.8 10.5 18.3 14.8 21.6 5.6 4.3 13 6 23.6 5.5 9.8-.5 13.2-1.7 18-6.5C74.1 90.7 80 82 84.2 73.9c1.9-3.5 4.1-6.5 4.9-6.5.8-.1 2.2-.2 3.1-.3 1 0 2.8-1.1 3.9-2.2 2-2 2.1-2.8 1.5-12.6-.4-5.7-.9-11.3-1.1-12.4-.2-1.1-.5-4.3-.6-7.1-.3-5.8-2.8-10.1-7.4-12.7-1.6-.9-3.6-2.4-4.3-3.4C79.9 11 71.9 5.3 64 2.4c-5.7-2-19.2-2.6-25-1zm19 3.1c5.4.8 15.4 6.1 19.4 10.3l3.7 3.7-30.7.3c-16.9.1-31 0-31.3-.3-1.3-1.4 9.1-9.3 15.9-11.9 7.6-3 13.2-3.5 23-2.1zM87.7 24c3.8 2.4 4 3.5 5.9 28.4.9 11.5.4 12-9.8 9.4-4-1-8-2-8.8-2.3-21.6-5.4-28.9-5.3-53.1.9-8.9 2.2-13.3 3-14.5 2.3-1.4-.8-1.6-2.2-1-11.1C8.1 26 8.5 24.7 14.1 23.3c1.7-.5 18.4-.8 37.2-.8 27.8.1 34.6.4 36.4 1.5zM72 62.5c5.8 1.4 10.9 3 11.3 3.4 1.4 1.4-8.7 18.5-14.7 24.9-4.6 5-7.9 6.3-16.5 6.6-14.4.5-21.3-2.7-28.1-13.1-5.2-8-9.5-17.2-8.4-18.3.8-.6 16.7-4.7 25.4-6.4 5.4-1 21 .4 31 2.9z"/><path d="M41.3 78.7c-2.3.8-1.4 2.4 2.2 3.9 4.5 1.8 9.8 1.8 13.5-.1 5.1-2.7 3-5.2-2.5-3-3 1.3-7.5 1.1-10.4-.4-.9-.5-2.2-.6-2.8-.4z"/></svg>