<svg id="Layer_1" data-name="Layer 1" xmlns="http://www.w3.org/2000/svg" width="88.75" height="24" viewBox="0 0 88.75 24">
  <defs>
    <style>
      .cls-1 {
        fill: #fff;
      }

      .cls-2 {
        isolation: isolate;
      }
    </style>
  </defs>
  <title>CoS_Logo-Wht</title>
  <g>
    <g>
      <path class="cls-1" d="M35.76,14.72a0.72,0.72,0,0,1,1-.1,4.53,4.53,0,0,0,2.65,1.07,3,3,0,0,0,1.74-.51,1.25,1.25,0,0,0,.6-1,0.79,0.79,0,0,0-.13-0.44,1.31,1.31,0,0,0-.42-0.42,5.56,5.56,0,0,0-1.9-.65h0a7.52,7.52,0,0,1-1.79-.54A3,3,0,0,1,36.2,11a2.13,2.13,0,0,1-.32-1.14,2.57,2.57,0,0,1,1.11-2,4.11,4.11,0,0,1,2.4-.74,5.44,5.44,0,0,1,3,1.11,0.72,0.72,0,0,1,.19,1,0.7,0.7,0,0,1-1,.21,4,4,0,0,0-2.24-.89A2.65,2.65,0,0,0,37.84,9a1.11,1.11,0,0,0-.53.88,0.67,0.67,0,0,0,.1.39,1.34,1.34,0,0,0,.38.36,4.79,4.79,0,0,0,1.74.61h0a8.18,8.18,0,0,1,1.92.58A3.25,3.25,0,0,1,42.86,13a2.25,2.25,0,0,1,.33,1.18A2.69,2.69,0,0,1,42,16.33a4.35,4.35,0,0,1-2.57.79,6,6,0,0,1-3.56-1.39A0.74,0.74,0,0,1,35.76,14.72Z"/>
      <path class="cls-1" d="M49,13.36H47.25v3a0.77,0.77,0,0,1-1.54,0V8.17a0.76,0.76,0,0,1,.76-0.76H49A3,3,0,1,1,49,13.36Zm-1.71-1.54H49A1.43,1.43,0,1,0,49,9H47.25v2.86Z"/>
      <path class="cls-1" d="M58.36,14.84H55L54.3,16.65a0.78,0.78,0,0,1-.72.49,0.81,0.81,0,0,1-.26,0,0.79,0.79,0,0,1-.46-1l3.07-8.19a0.78,0.78,0,0,1,.74-0.49,0.76,0.76,0,0,1,.74.49l3.07,8.19a0.79,0.79,0,0,1-.46,1,0.78,0.78,0,0,1-1-.44Zm-0.57-1.53-1.13-3-1.13,3h2.25Z"/>
      <path class="cls-1" d="M61.92,12.13a5.1,5.1,0,0,1,5.1-5,5.2,5.2,0,0,1,3.21,1.08,0.8,0.8,0,0,1-1,1.26A3.46,3.46,0,0,0,67,8.72a3.68,3.68,0,0,0-2.5,1,3.43,3.43,0,0,0-1,2.42,3.38,3.38,0,0,0,1,2.42,3.68,3.68,0,0,0,2.5,1,3.49,3.49,0,0,0,2.24-.76,0.84,0.84,0,0,1,1.11.15,0.82,0.82,0,0,1-.14,1.11A5.2,5.2,0,0,1,67,17.14,5.08,5.08,0,0,1,61.92,12.13Z"/>
      <path class="cls-1" d="M72.88,16.37V8.17a0.75,0.75,0,0,1,.76-0.76h4.54a0.77,0.77,0,0,1,.76.76,0.78,0.78,0,0,1-.76.78H74.42v2.54h3.24a0.77,0.77,0,0,1,0,1.54H74.42v2.56h3.77a0.77,0.77,0,0,1,0,1.54h-4.5s0,0,0,0h0A0.76,0.76,0,0,1,72.88,16.37Z"/>
      <path class="cls-1" d="M81.2,14.72a0.72,0.72,0,0,1,1-.1,4.53,4.53,0,0,0,2.65,1.07,3,3,0,0,0,1.74-.51,1.25,1.25,0,0,0,.6-1,0.79,0.79,0,0,0-.13-0.44,1.31,1.31,0,0,0-.42-0.42,5.56,5.56,0,0,0-1.9-.65h0a7.52,7.52,0,0,1-1.79-.54A3,3,0,0,1,81.64,11a2.13,2.13,0,0,1-.32-1.14,2.57,2.57,0,0,1,1.11-2,4.11,4.11,0,0,1,2.4-.74,5.44,5.44,0,0,1,3,1.11,0.72,0.72,0,0,1,.19,1,0.7,0.7,0,0,1-1,.21,4,4,0,0,0-2.24-.89A2.65,2.65,0,0,0,83.28,9a1.11,1.11,0,0,0-.53.88,0.67,0.67,0,0,0,.1.39,1.34,1.34,0,0,0,.38.36,4.79,4.79,0,0,0,1.74.61h0a8.18,8.18,0,0,1,1.92.58A3.25,3.25,0,0,1,88.3,13a2.25,2.25,0,0,1,.33,1.18,2.69,2.69,0,0,1-1.2,2.15,4.35,4.35,0,0,1-2.57.79,6,6,0,0,1-3.56-1.39A0.74,0.74,0,0,1,81.2,14.72Z"/>
    </g>
    <g>
      <g class="cls-2">
        <path class="cls-1" d="M0.76,0.93a0.62,0.62,0,0,0-.3.14,1.07,1.07,0,0,0-.24.3,1.63,1.63,0,0,0-.16.41A2,2,0,0,0,0,2.26V21.74a2,2,0,0,0,.06.48,1.63,1.63,0,0,0,.16.41,1.07,1.07,0,0,0,.24.3,0.62,0.62,0,0,0,.3.14l4.79,0.78A1.22,1.22,0,0,0,6.6,23.5,1.43,1.43,0,0,0,6.91,23,1.79,1.79,0,0,0,7,22.35V1.66A1.79,1.79,0,0,0,6.91,1,1.45,1.45,0,0,0,6.59.5a1.21,1.21,0,0,0-1-.35l-4.78.78"/>
      </g>
      <g>
        <path class="cls-1" d="M32.68,4.2a1.69,1.69,0,0,0-.2-0.41,1.12,1.12,0,0,0-.26-0.3,0.65,0.65,0,0,0-.31-0.14L9.53,0.15A1.22,1.22,0,0,0,8.47.5a1.39,1.39,0,0,0-.29.5,1.79,1.79,0,0,0-.08.66V22.35a1.79,1.79,0,0,0,.08.65,1.42,1.42,0,0,0,.3.5,1.18,1.18,0,0,0,1,.35L31.9,20.64a0.62,0.62,0,0,0,.3-0.14,1.07,1.07,0,0,0,.24-0.3,1.75,1.75,0,0,0,.23-0.41,2,2,0,0,0,.12-0.48V4.69A2,2,0,0,0,32.68,4.2ZM20.94,10.07a1.17,1.17,0,0,1-.14.35,0.85,0.85,0,0,1-.24.26l-0.09.05-0.1,0-0.1,0h-0.1a0.63,0.63,0,0,1-.22,0,0.74,0.74,0,0,1-.2-0.12,0.91,0.91,0,0,1-.17-0.18,1.15,1.15,0,0,1-.13-0.24A4.47,4.47,0,0,0,19,9.29a3.64,3.64,0,0,0-.63-0.71,2.93,2.93,0,0,0-.75-0.47,2.51,2.51,0,0,0-.84-0.2H16.62a2.48,2.48,0,0,0-1.1.26A3.17,3.17,0,0,0,14.47,9a4.34,4.34,0,0,0-.73,1.35,5.41,5.41,0,0,0,0,3.4,4.39,4.39,0,0,0,.73,1.36,3.21,3.21,0,0,0,1.06.87,2.49,2.49,0,0,0,1.12.27h0.12a2.48,2.48,0,0,0,.82-0.19,2.89,2.89,0,0,0,.74-0.45A3.56,3.56,0,0,0,18.95,15a4.34,4.34,0,0,0,.48-0.87,1.12,1.12,0,0,1,.13-0.23,0.9,0.9,0,0,1,.17-0.17,0.73,0.73,0,0,1,.19-0.11,0.64,0.64,0,0,1,.22,0h0.09l0.1,0,0.1,0,0.1,0.06a0.89,0.89,0,0,1,.23.27,1.19,1.19,0,0,1,.13.35,1.38,1.38,0,0,1,0,.39,1.33,1.33,0,0,1-.09.39,6.65,6.65,0,0,1-.71,1.31,5.54,5.54,0,0,1-.94,1,4.55,4.55,0,0,1-1.12.71,3.9,3.9,0,0,1-1.27.32H16.49a3.88,3.88,0,0,1-1.67-.38,4.89,4.89,0,0,1-1.66-1.32A6.61,6.61,0,0,1,12,14.69a8.16,8.16,0,0,1,0-5.23,6.55,6.55,0,0,1,1.16-2.07,4.84,4.84,0,0,1,1.66-1.31,3.87,3.87,0,0,1,1.64-.37h0.32a4,4,0,0,1,1.31.34,4.6,4.6,0,0,1,1.15.75,5.64,5.64,0,0,1,.95,1.09,6.86,6.86,0,0,1,.7,1.38,1.34,1.34,0,0,1,.08.39A1.38,1.38,0,0,1,20.94,10.07Zm9.57,4.14a6.44,6.44,0,0,1-.73,1.73,4.3,4.3,0,0,1-1.12,1.24,2.81,2.81,0,0,1-1.44.55H27a2.67,2.67,0,0,1-1.31-.35,3.9,3.9,0,0,1-1.26-1.17,6.13,6.13,0,0,1-.87-1.83,8.25,8.25,0,0,1,0-4.57A6.08,6.08,0,0,1,24.44,8a3.86,3.86,0,0,1,1.26-1.16A2.67,2.67,0,0,1,27,6.51h0.22a2.84,2.84,0,0,1,1.44.56,4.34,4.34,0,0,1,1.12,1.25,6.48,6.48,0,0,1,.73,1.74A8.29,8.29,0,0,1,30.51,14.21Z"/>
        <path class="cls-1" d="M29.35,13.54a5.5,5.5,0,0,0,0-2.8,4.26,4.26,0,0,0-.5-1.16,2.78,2.78,0,0,0-.74-0.81,1.75,1.75,0,0,0-.91-0.33H27.11a1.67,1.67,0,0,0-.84.23,2.54,2.54,0,0,0-.8.76,4.06,4.06,0,0,0-.56,1.19,5.48,5.48,0,0,0,0,3,4.09,4.09,0,0,0,.56,1.2,2.57,2.57,0,0,0,.8.77,1.68,1.68,0,0,0,.85.24H27.2a1.74,1.74,0,0,0,.91-0.33,2.75,2.75,0,0,0,.74-0.8A4.23,4.23,0,0,0,29.35,13.54Z"/>
      </g>
    </g>
  </g>
</svg>
